<?xml version="1.0" encoding="utf-8"?>
<!-- Generator: Adobe Illustrator 24.0.3, SVG Export Plug-In . SVG Version: 6.00 Build 0)  -->
<svg version="1.1" id="Wordmark" xmlns="http://www.w3.org/2000/svg" xmlns:xlink="http://www.w3.org/1999/xlink" x="0px" y="0px"
	 viewBox="0 0 1500 165.7" style="enable-background:new 0 0 1500 165.7;" xml:space="preserve">
<style type="text/css">
	.st0{fill:#1D1B1C;}
</style>
<g>
	<g>
		<path class="st0" d="M251.3,162.9L313.7,5.1L360.6,5l62.6,157.7l-30.2,0l-15.8-40.1l-80.5,0.1L281,162.9L251.3,162.9z M332.5,32.1
			l-25.8,65.4l60.6-0.1l-25.8-65.3L332.5,32.1z"/>
		<path class="st0" d="M479,162.6l-0.2-131.2l-60.2,0.1l1.1-26.6l146.9-0.2l1.2,26.6l-60.2,0.1l0.2,131.2L479,162.6z"/>
		<path class="st0" d="M670,165.7c-14.6,0-27.3-2.1-38.1-6.5c-10.8-4.3-19.7-10.2-26.7-17.6c-7-7.4-12.2-16.1-15.6-26
			c-3.4-9.9-5.1-20.3-5.1-31.3c0-11.1,1.9-21.7,5.7-31.8c3.8-10.1,9.4-18.9,16.9-26.4S623.7,12.5,634.8,8c11-4.5,23.7-6.8,38-6.8
			c12.8,0,24.2,2,34.3,5.9s18.2,8.3,24.4,12.9l0,29.5h-0.2c-8.3-5.7-17.1-10.8-26.4-15.4s-20.2-6.8-32.7-6.8c-9,0-17.1,1.5-24.3,4.3
			c-7.2,2.9-13.3,6.8-18.2,11.9s-8.7,11-11.4,18c-2.6,7-3.9,14.5-3.9,22.4c0,8,1.3,15.3,3.8,22.1s6.1,12.6,11,17.6
			c4.8,5,10.8,8.8,18,11.7s15.5,4.3,24.8,4.2c12.3,0,23.3-2.1,32.9-6.2c9.6-4.1,18.5-9.3,26.6-15.5h0.2l0,29.5
			c-6,4.4-14.3,8.5-24.8,12.4C696.3,163.8,684,165.7,670,165.7z"/>
		<path class="st0" d="M772.3,162.2L772.1,4.4l28.8,0l0.1,62.9l90.2-0.1l-0.1-62.9l28.8,0l0.2,157.8l-28.8,0l-0.1-68.3l-90.2,0.1
			l0.1,68.3L772.3,162.2z"/>
		<path class="st0" d="M963.4,161.9L963.2,4.2l96.2-0.1c16.1,0,28.7,3.3,37.9,10.1c9.2,6.8,13.8,16.6,13.8,29.5c0,9-2.2,16.7-6.6,23
			s-11.8,10.8-22.2,13.3c10.7,3.6,18.7,8.4,24,14.5s8,13.8,8,23.3c0,15.8-5.4,27-16.2,33.8c-10.8,6.8-24.9,10.2-42.4,10.2
			L963.4,161.9z M991.2,69.7l64.7-0.1c9,0,15.7-1.7,19.9-5c4.3-3.3,6.4-8.5,6.4-15.6c0-6.8-2.2-11.8-6.6-15
			c-4.4-3.2-10.8-4.8-19.2-4.8l-65.3,0.1L991.2,69.7z M991.3,136.7l65.3-0.5c10.2-0.2,17.6-2,22.2-5.6c4.6-3.5,6.9-9,6.8-16.3
			c0-6.9-2.3-12.2-6.8-16s-11.7-5.6-21.6-5.6l-66,0.1L991.3,136.7z"/>
		<path class="st0" d="M1231.9,165.4c-13.2,0-25.2-1.9-35.8-5.8c-10.7-3.9-19.8-9.4-27.3-16.6s-13.3-15.9-17.4-26.1
			c-4.1-10.2-6.1-21.5-6.1-34s2-23.8,6-34c4-10.2,9.8-19,17.3-26.2c7.5-7.2,16.6-12.8,27.2-16.7c10.7-3.9,22.6-5.9,35.8-5.9
			c13.2,0,25.2,1.9,35.8,5.8c10.7,3.9,19.7,9.4,27.2,16.6c7.4,7.2,13.2,15.9,17.3,26.1c4.1,10.2,6.1,21.5,6.1,34s-2,23.8-6,34
			s-9.8,18.9-17.2,26.2c-7.4,7.2-16.5,12.8-27.1,16.7C1257,163.4,1245.1,165.4,1231.9,165.4z M1231.6,139.3
			c17.9,0,31.8-5.1,41.9-15.3s15.1-23.9,15-41.4c0-17.4-5-31.2-14.9-41.3s-23.8-15.2-41.7-15.1s-31.8,5.1-41.9,15.3
			s-15.1,23.9-15,41.4c0,17.4,5,31.2,14.9,41.3C1199.8,134.3,1213.7,139.3,1231.6,139.3z"/>
		<path class="st0" d="M1363.3,161.4l-34.3,0.1v-0.2l66.6-81.4l-62.1-75.9V3.7l34.9,0l46.1,57.6l46.3-57.8l34.3,0v0.2l-61.7,75.6
			l66.4,81.7v0.2l-35.2,0.1L1414.4,98L1363.3,161.4z"/>
	</g>
	<path class="st0" d="M251.4,162.9L313.9,5.1L360.7,5l62.6,157.7l-30.2,0l-15.8-40.1l-80.5,0.1l-15.7,40.1L251.4,162.9z M332.6,32.1
		l-25.8,65.4l60.6-0.1l-25.8-65.3L332.6,32.1z"/>
	<path class="st0" d="M479.2,162.4L479,31.2l-60.2,0.1l1.1-26.6l146.9-0.2l1.2,26.6l-60.2,0.1l0.2,131.2L479.2,162.4z"/>
	<path class="st0" d="M670.2,165.7c-14.6,0-27.3-2.1-38.1-6.5c-10.8-4.3-19.7-10.2-26.7-17.6c-7-7.4-12.2-16.1-15.6-26
		c-3.4-9.9-5.1-20.3-5.1-31.3c0-11.1,1.9-21.7,5.7-31.8c3.8-10.1,9.4-18.9,16.9-26.4S623.9,12.5,634.9,8c11-4.5,23.7-6.8,38-6.8
		c12.8,0,24.2,2,34.3,5.9s18.2,8.3,24.4,12.9l0,29.5h-0.2c-8.3-5.7-17.1-10.8-26.4-15.4s-20.2-6.8-32.7-6.8c-9,0-17.1,1.5-24.3,4.3
		c-7.2,2.9-13.3,6.8-18.2,11.9s-8.7,11-11.4,18c-2.6,7-3.9,14.5-3.9,22.4c0,8,1.3,15.3,3.8,22.1s6.1,12.6,11,17.6
		c4.8,5,10.8,8.8,18,11.7s15.5,4.3,24.8,4.2c12.3,0,23.3-2.1,32.9-6.2c9.6-4.1,18.5-9.3,26.6-15.5h0.2l0,29.5
		c-6,4.4-14.3,8.5-24.8,12.4C696.4,163.8,684.2,165.7,670.2,165.7z"/>
	<path class="st0" d="M772.5,162.2L772.3,4.4l28.8,0l0.1,62.9l90.2-0.1l-0.1-62.9l28.8,0l0.2,157.8l-28.8,0l-0.1-68.3l-90.2,0.1
		l0.1,68.3L772.5,162.2z"/>
	<path class="st0" d="M963.5,161.9L963.3,4.2l96.2-0.1c16.1,0,28.7,3.3,37.9,10.1c9.2,6.8,13.8,16.6,13.8,29.5c0,9-2.2,16.7-6.6,23
		s-11.8,10.8-22.2,13.3c10.7,3.6,18.7,8.4,24,14.5s8,13.8,8,23.3c0,15.8-5.4,27-16.2,33.8c-10.8,6.8-24.9,10.2-42.4,10.2
		L963.5,161.9z M991.3,69.7l64.7-0.1c9,0,15.7-1.7,19.9-5c4.3-3.3,6.4-8.5,6.4-15.6c0-6.8-2.2-11.8-6.6-15
		c-4.4-3.2-10.8-4.8-19.2-4.8l-65.3,0.1L991.3,69.7z M991.4,136.7l65.3-0.5c10.2-0.2,17.6-2,22.2-5.6c4.6-3.5,6.9-9,6.8-16.3
		c0-6.9-2.3-12.2-6.8-16s-11.7-5.6-21.6-5.6l-66,0.1L991.4,136.7z"/>
	<path class="st0" d="M1232,165.4c-13.2,0-25.2-1.9-35.8-5.8c-10.7-3.9-19.8-9.4-27.3-16.6s-13.3-15.9-17.4-26.1
		c-4.1-10.2-6.1-21.5-6.1-34s2-23.8,6-34c4-10.2,9.8-19,17.3-26.2c7.5-7.2,16.6-12.8,27.2-16.7c10.7-3.9,22.6-5.9,35.8-5.9
		c13.2,0,25.2,1.9,35.8,5.8c10.7,3.9,19.7,9.4,27.2,16.6c7.4,7.2,13.2,15.9,17.3,26.1c4.1,10.2,6.1,21.5,6.1,34s-2,23.8-6,34
		s-9.8,18.9-17.2,26.2c-7.4,7.2-16.5,12.8-27.1,16.7C1257.2,163.4,1245.2,165.4,1232,165.4z M1231.8,139.3
		c17.9,0,31.8-5.1,41.9-15.3s15.1-23.9,15-41.4c0-17.4-5-31.2-14.9-41.3s-23.8-15.2-41.7-15.1s-31.8,5.1-41.9,15.3
		s-15.1,23.9-15,41.4c0,17.4,5,31.2,14.9,41.3C1200,134.3,1213.9,139.3,1231.8,139.3z"/>
	<path class="st0" d="M1363.4,161.4l-34.3,0.1v-0.2l66.6-81.4l-62.1-75.9V3.7l34.9,0l46.1,57.6L1461,3.5l34.3,0v0.2l-61.7,75.6
		L1500,161v0.2l-35.2,0.1L1414.5,98L1363.4,161.4z"/>
	<polygon class="st0" points="0,5 30.7,5 86.4,134.3 96.1,134.3 116.2,80.6 83.5,5 113.2,5 131.7,49 149.1,5 178.2,5 148,79 
		170.8,134.3 180.5,134.3 232.8,5 262.6,5 198.5,162.9 151.1,162.9 132,114 113.5,162.9 66.1,162.9 	"/>
</g>
</svg>
